<svg xmlns="http://www.w3.org/2000/svg" xmlns:xlink="http://www.w3.org/1999/xlink" width="1118" viewBox="0 0 1145 380.36" preserveAspectRation="xMinYMax">
  <defs>
    <filter id="Path_1" x="0" y="0" width="1145" height="380.36" filterUnits="userSpaceOnUse">
      <feOffset dx="10" input="SourceAlpha"/>
      <feGaussianBlur stdDeviation="25" result="blur"/>
      <feFlood flood-color="#f6f6f6" flood-opacity="0.161"/>
      <feComposite operator="in" in2="blur"/>
      <feComposite in="SourceGraphic"/>
    </filter>
  </defs>
  <g transform="matrix(1, 0, 0, 1, 0, 0)" filter="url(#Path_1)">
    <path id="Path_1-2" data-name="Path 1" d="M607,257.292h469.9s117.448-6.889,148.985,24.117S1381.9,288.7,1422.9,306.7c20.294,8.912,74.625-13.053,105.47,0,42.785,14.685,73.63,6.527,73.63,6.527V409.99s-14.2-1.668-16.827,0,9.384-3.436,0,0c-43.044,15.763-27.948,4.33-27.948,4.33s-15.641-7.016-19.876-4.33-17.6,2.841-22.076,0-41,4.33-41,4.33-52.163,9.39-64.652-4.33-29.107,23.838-49.16,31.181-22.432-24.213-59.679-37.853c-14.526-5.32-22.041-31.006-61.948-12.06s-74.778-5.943-81.511-5.943c-11.038,0-59.921,14-118.265-21S971.255,472.331,900.3,414.32,767.84,342.307,767.84,342.307s-26.03,64.156-26.03,16.511-26.006-8.509-26.006-8.509h0s-47.929,64.012-31.849,96.017-12.3,38.007-12.3,38.007-25,6-26.807,0h0c-7.035-9.04,10.968-43.161,10.968-43.161h0s10.8-4.794,28.142-45.855,0-61.011,0-61.011-9.191-12.02-28.142,0S607,392.331,607,358.818V257.292Z" transform="translate(-542 -181.64)" fill="rgba(72,25,8,0.86)">
    </path>
  </g>
</svg>
